<?xml version="1.0" encoding="UTF-8" standalone="no"?>
<!-- Created with Inkscape (http://www.inkscape.org/) -->

<svg
   width="1920"
   height="1080"
   viewBox="0 0 508 285.75"
   version="1.1"
   id="svg5"
   inkscape:version="1.1.1 (3bf5ae0d25, 2021-09-20)"
   sodipodi:docname="background.svg"
   xmlns:inkscape="http://www.inkscape.org/namespaces/inkscape"
   xmlns:sodipodi="http://sodipodi.sourceforge.net/DTD/sodipodi-0.dtd"
   xmlns="http://www.w3.org/2000/svg"
   xmlns:svg="http://www.w3.org/2000/svg">
  <sodipodi:namedview
     id="namedview7"
     pagecolor="#ffffff"
     bordercolor="#666666"
     borderopacity="1.0"
     inkscape:pageshadow="2"
     inkscape:pageopacity="0.0"
     inkscape:pagecheckerboard="0"
     inkscape:document-units="mm"
     showgrid="false"
     units="px"
     inkscape:zoom="0.37059484"
     inkscape:cx="1547.5121"
     inkscape:cy="713.71744"
     inkscape:window-width="1920"
     inkscape:window-height="1017"
     inkscape:window-x="-8"
     inkscape:window-y="-8"
     inkscape:window-maximized="1"
     inkscape:current-layer="layer1" />
  <defs
     id="defs2" />
  <g
     inkscape:label="Layer 1"
     inkscape:groupmode="layer"
     id="layer1">
    <g
       id="g900"
       transform="matrix(0.32575675,0,0,0.32540693,91.992432,-15.595564)"
       style="fill:#d3bc5f">
      <path
         d="m 407.7,345.1 c -3.9,-3 -8.3,-5.4 -13,-7.1 -6.1,11.7 -7.3,25.8 -2.2,39 3.2,8.3 8.5,15.1 15.1,20.2 3.9,3 8.3,5.4 12.9,7.1 6.1,-11.6 7.3,-25.8 2.2,-39 -3.2,-8.3 -8.5,-15.1 -15,-20.2 z"
         id="path826"
         style="fill:#d3bc5f" />
      <path
         d="m 535.2,263.7 c -6.1,3 -11.8,6.7 -17,11 -13,10.8 -22.9,25.6 -27.6,43.1 -0.6,2.2 -1.1,4.4 -1.5,6.6 -1.9,10.4 -1.8,20.8 0,30.7 2.1,11.5 6.6,22.3 13,31.9 5.7,-2.8 11.1,-6.2 16.1,-10.3 11.7,-9.4 21,-22 26.4,-36.9 0.8,-2.3 1.6,-4.6 2.2,-6.9 4.7,-17.4 3.5,-35.1 -2.2,-50.8 -2.4,-6.5 -5.5,-12.7 -9.4,-18.4 z"
         id="path828"
         style="fill:#d3bc5f" />
      <path
         d="m 489.1,240.4 c 5.1,4.2 10.6,7.7 16.5,10.6 6,-9 10.3,-19.1 12.6,-29.7 2.4,-11.3 2.5,-23.2 0,-35.2 -0.3,-1.4 -0.6,-2.9 -1,-4.3 -4.8,-17.8 -14.9,-32.7 -28.1,-43.6 -5.1,-4.2 -10.7,-7.7 -16.5,-10.6 -13.1,19.6 -18.1,44.5 -11.5,69.2 4.7,17.8 14.8,32.8 28,43.6 z"
         id="path830"
         style="fill:#d3bc5f" />
      <path
         d="m 542.7,181.8 c -4.6,17.1 -3.6,34.5 1.9,50.1 2.4,6.8 5.6,13.2 9.6,19.1 5.9,-2.9 11.4,-6.4 16.5,-10.6 13.2,-10.8 23.3,-25.8 28.1,-43.6 6.6,-24.6 1.6,-49.6 -11.5,-69.2 -5.9,2.9 -11.4,6.4 -16.6,10.6 -11.7,9.6 -20.9,22.3 -26.2,37.4 -0.6,2.1 -1.2,4.2 -1.8,6.2 z"
         id="path832"
         style="fill:#d3bc5f" />
      <path
         d="m 528.8,145 c 6.7,-4.6 12.1,-10.9 15.8,-18.3 2.2,-4.7 3.8,-9.8 4.4,-15.2 1.1,-9.3 -0.6,-18.2 -4.4,-26.1 -2,-4.1 -4.5,-7.8 -7.5,-11.1 -9,6.2 -15.7,15.3 -18.8,26.2 -0.7,2.4 -1.2,4.8 -1.5,7.3 -0.7,6.3 -0.1,12.4 1.5,18.2 2,7.1 5.6,13.6 10.5,19 z"
         id="path834"
         style="fill:#d3bc5f" />
      <path
         d="m 652.2,166.8 c 6.1,-11.6 7.4,-25.8 2.2,-39 -5.2,-13.2 -15.7,-22.8 -28.1,-27.3 -6.1,11.7 -7.3,25.8 -2.1,39.1 5.2,13.2 15.6,22.8 28,27.2 z"
         id="path836"
         style="fill:#d3bc5f" />
      <path
         d="m 400.4,322.1 c 2.6,-2.4 5,-4.9 7.3,-7.6 12.9,-15.3 20.5,-35.3 19.8,-57 -0.6,-19.8 -7.9,-37.8 -19.8,-51.9 -3.4,-4 -7.1,-7.7 -11.2,-11 -17.3,16.2 -27.8,39.3 -27.1,64.7 0.8,25.4 12.7,47.9 31,62.8 z"
         id="path838"
         style="fill:#d3bc5f" />
      <path
         d="m 441.5,153.1 c 0.7,-14.1 -4.9,-27.1 -14.4,-36.2 -10.3,8.1 -17.2,20.6 -17.8,34.6 -0.8,14.3 4.9,27.2 14.4,36.4 10.3,-8.1 17.2,-20.6 17.8,-34.8 z"
         id="path840"
         style="fill:#d3bc5f" />
      <path
         d="m 848,359.3 c -5.4,8.7 -9.2,18.3 -11.2,28.3 3.7,1.3 7.4,2.3 11.2,3.1 19.4,3.9 40.2,1 58.6,-9.5 10.8,-6.2 19.8,-14.4 26.6,-23.9 7.1,-9.9 12,-21.2 14.4,-33 -4.7,-1.6 -9.5,-2.9 -14.4,-3.6 -18.4,-3 -37.9,0.1 -55.5,10.1 -12.5,7 -22.6,17 -29.7,28.5 z"
         id="path842"
         style="fill:#d3bc5f" />
      <path
         d="m 318.5,199.5 c 5.7,9.3 14.4,16 24.2,19.6 6.1,-11.6 7.3,-25.8 2.2,-39 -4.9,-12.7 -14.8,-21.9 -26.4,-26.6 -0.5,-0.2 -1.1,-0.4 -1.7,-0.6 -6.1,11.5 -7.3,25.7 -2.2,39 1.2,2.6 2.5,5.2 3.9,7.6 z"
         id="path844"
         style="fill:#d3bc5f" />
      <path
         d="m 848,430.3 c -2.6,1.2 -5.2,2.5 -7.7,3.9 -1.8,1 -3.6,2.1 -5.2,3.2 -19.1,12.8 -31.5,32.4 -35.7,53.6 11.4,4 23.6,5.5 35.7,4.4 4.3,-0.4 8.7,-1.1 12.9,-2.2 7.2,-1.9 14.3,-4.7 21.1,-8.6 22.2,-12.6 36.4,-33.8 41,-56.9 -19.7,-6.9 -41.9,-6.4 -62.1,2.6 z"
         id="path846"
         style="fill:#d3bc5f" />
      <path
         d="m 631.4,237 c -6.6,24.6 -1.6,49.6 11.6,69.2 5.9,-2.9 11.4,-6.4 16.5,-10.6 13.3,-10.8 23.3,-25.8 28.1,-43.5 6.6,-24.6 1.6,-49.6 -11.5,-69.2 -5.9,2.9 -11.5,6.5 -16.6,10.6 -13.3,10.8 -23.3,25.7 -28.1,43.5 z"
         id="path848"
         style="fill:#d3bc5f" />
      <path
         d="m 848,292.5 c -5.2,7.8 -7.9,17 -7.9,26.1 2.6,0.4 5.2,0.5 7.9,0.4 10.6,-0.3 21.1,-4.1 29.6,-11.6 10.7,-9.2 16.1,-22.4 16.1,-35.5 -13,-1.8 -26.7,1.9 -37.4,11.2 -3.2,2.8 -6,6 -8.3,9.4 z"
         id="path850"
         style="fill:#d3bc5f" />
      <path
         d="m 918.8,408 c 4.3,3.3 9.2,5.8 14.4,7.4 7.5,2.3 15.6,2.8 23.7,1.1 13.9,-2.8 25.1,-11.6 31.5,-23 -10.4,-7.9 -24.1,-11.5 -38.1,-8.6 -6.3,1.3 -12.1,3.8 -17.2,7.3 -5.9,4.1 -10.8,9.6 -14.3,15.8 z"
         id="path852"
         style="fill:#d3bc5f" />
      <path
         d="m 730.9,212.8 c -10.3,18.7 -12.7,40.1 -8.1,59.8 2.7,-0.2 5.4,-0.6 8.1,-1.1 10.3,-2 20.3,-5.8 29.2,-11.5 8.9,-5.6 17,-13 23.5,-22.1 14.9,-20.6 19.2,-45.7 13.9,-68.8 -13.2,1.2 -26,5.5 -37.4,12.6 -8.9,5.6 -17,13 -23.6,22.1 -2,2.9 -3.9,5.9 -5.6,9 z"
         id="path854"
         style="fill:#d3bc5f" />
      <path
         d="m 835.1,252.2 c 4.4,-0.5 8.7,-1.5 12.9,-3.3 1.8,-0.7 3.5,-1.6 5.2,-2.5 12.4,-7 20.3,-18.7 23,-31.6 -9,-3.2 -18.8,-3.7 -28.2,-1.1 -3.6,1 -7.2,2.4 -10.6,4.4 -0.8,0.4 -1.6,0.9 -2.3,1.4 -11.1,7.1 -18.3,18.1 -20.8,30.2 6.6,2.3 13.7,3.2 20.8,2.5 z"
         id="path856"
         style="fill:#d3bc5f" />
      <path
         d="m 710.4,185.6 c 7.9,-2.9 15.1,-8 20.5,-14.8 3,-3.7 5.5,-8 7.3,-12.7 5,-13.2 3.7,-27.4 -2.4,-39 -1.6,0.6 -3.3,1.3 -4.8,2.1 -9.3,4.6 -17,12.3 -21.7,22.2 -0.5,1 -0.9,2.1 -1.3,3.1 -4.7,12.4 -3.9,25.6 1.3,36.8 0.3,0.8 0.7,1.6 1.1,2.3 z"
         id="path858"
         style="fill:#d3bc5f" />
      <path
         d="m 760.2,301.5 c -2.4,2 -4.7,4 -6.9,6.3 -11.4,11.4 -18.8,25.3 -22.3,39.9 -2,8.5 -2.7,17.2 -2.1,25.8 0.7,0 1.4,0.1 2.1,0.1 9.9,0.4 19.8,-0.9 29.2,-3.9 12.6,-4 24.3,-11 34.3,-21 18,-18 26.1,-42.2 24.4,-65.8 -20.7,-1.3 -41.8,4.9 -58.7,18.6 z"
         id="path860"
         style="fill:#d3bc5f" />
      <path
         d="m 155.4,288.5 c 3.1,2.3 6.4,4.3 9.8,5.7 8.5,3.7 17.8,4.7 26.7,3.3 0.5,-0.1 1,-0.2 1.6,-0.3 -0.2,-3.2 -0.7,-6.4 -1.6,-9.5 -2.6,-9.6 -8.3,-18.5 -16.8,-25 -3.1,-2.4 -6.4,-4.3 -9.9,-5.8 -9,-3.9 -18.9,-4.9 -28.2,-2.9 0.8,13 7.1,25.8 18.4,34.5 z"
         id="path862"
         style="fill:#d3bc5f" />
      <path
         d="m 730.9,595.7 c 9.9,-3.6 19.7,-7 29.2,-10.7 29.1,-11.1 55.8,-24.1 74.9,-47.4 4.8,-5.9 9.2,-12.4 12.9,-19.7 3,-5.7 5.6,-11.9 7.9,-18.7 -2.5,2 -5.1,3.9 -7.9,5.7 -4.1,2.7 -8.4,5.2 -12.9,7.6 -21,11 -47,19.5 -74.9,27.5 -9.6,2.7 -19.4,5.4 -29.2,8.2 -6.3,1.7 -12.6,3.5 -18.9,5.3 5.4,-9.5 11.7,-19.6 18.9,-29.8 8.5,-12 18.2,-24 29.2,-35.4 11.7,-12.1 24.9,-23.5 39.7,-33.2 -13.1,4.6 -26.4,11.8 -39.7,20.8 -9.8,6.7 -19.6,14.3 -29.2,22.6 -7.3,6.3 -14.6,13 -21.7,19.9 -16.8,16.4 -32.6,34 -46.9,50.8 l -2.9,1.1 c -35.4,12.9 -67.4,29.5 -88.7,54.4 -7.3,8.5 -13.3,17.9 -17.8,28.5 -0.7,-35.7 6.1,-65.6 17.8,-91 19.5,-42.3 52.8,-72 88.7,-94.4 16.4,-10.2 33.4,-19 49.8,-26.7 7.4,-3.5 14.6,-6.7 21.7,-9.8 10.3,-4.5 20.1,-8.7 29.2,-12.8 32.8,-14.5 56.2,-26.7 56.2,-43.4 -16.8,14 -36.2,20.8 -56.2,25.1 -9.7,2.1 -19.6,3.6 -29.2,5.1 -7.4,1.1 -14.6,2.2 -21.7,3.5 -8,1.5 -15.8,3.3 -23.1,5.7 19.2,-57.6 26,-83.7 7.9,-138.1 0,69.7 -8.6,106.5 -34.6,136.9 -6.2,7.2 -13.3,14 -21.6,20.9 -18.1,14.9 -43.8,28.8 -67.1,47.8 -9.3,7.6 -18.2,16 -26.2,25.6 -1.5,1.8 -3,3.7 -4.4,5.6 0,-11.9 1.6,-23.2 4.4,-34.2 5.5,-21.8 15.5,-42.2 26.2,-62.7 26.7,-51.5 57,-103.7 28.6,-181.2 -3.4,47 -15,80.1 -28.6,107.1 -8.5,16.8 -17.7,31.2 -26.2,45.1 -10,16.4 -18.9,32.1 -24.2,50.1 l -2.2,-1.8 C 506.7,426.4 497,417.4 489,408.6 439,354 448.4,304.8 459.1,229.2 c -63.1,189.2 29.6,158.1 29.6,303.9 -30.3,-39.4 -58.4,-67.3 -81.1,-95.4 -34.5,-42.6 -56.9,-85.8 -56.9,-171 -19.3,96 16.1,148.9 56.9,206.1 31.4,43.9 65.9,90.2 81.4,160.3 2.9,13.1 5.1,27 6.6,41.8 -2.2,-2.5 -4.4,-5 -6.6,-7.4 -26.8,-29.7 -53.2,-52.2 -81.4,-72 -4.6,-3.2 -9.2,-6.4 -13.9,-9.5 -26.1,-49.9 -30.5,-107.9 -75.2,-155.8 -3.3,-3.5 -6.8,-7 -10.6,-10.4 3.9,5.8 7.4,11.6 10.6,17.4 23.8,43.6 28.2,88.1 43.8,128.9 -13.9,-8.4 -28.4,-16.8 -43.8,-25.7 -10.7,-6.2 -21.8,-12.6 -33.4,-19.4 -20.3,-11.9 -42.1,-24.9 -65.7,-39.9 -6.7,-4.3 -13.5,-8.7 -20.5,-13.3 0.3,12.3 8.2,23.9 20.5,35.2 16.7,15.5 41.5,30.6 65.7,46.7 11.6,7.7 23,15.6 33.4,24 14,11.2 26.2,23.1 34.1,36.1 -6.3,-2.1 -18.3,-4.9 -34.1,-7.9 -9.9,-1.9 -21.2,-3.8 -33.4,-5.7 -20.1,-3 -42.7,-5.7 -65.7,-7.5 -9.2,-0.7 -18.4,-1.3 -27.5,-1.7 -9,-0.4 -18,-0.6 -26.7,-0.5 -36.6,0.2 -69.3,4.4 -87.9,15.7 -0.9,0.6 -1.8,1.1 -2.7,1.7 h 2.7 c 30,0.1 59.5,1.3 87.9,4.1 9,0.9 17.9,1.9 26.7,3.1 9.3,1.2 18.5,2.7 27.5,4.3 23,4.1 45,9.4 65.7,16.1 11.6,3.7 22.7,7.9 33.4,12.5 35.3,15.3 65.6,35.5 89.2,61.8 20.2,22.7 35.4,49.8 44.4,82.2 6,21.8 7.9,111.4 -10.8,138.1 h 160 c -15.2,-21 -27.3,-80.8 -30.5,-116.5 -0.9,-10.2 -1.1,-18.4 -0.5,-23.2 0.2,-1.1 0.3,-2.2 0.5,-3.3 12.5,-86 47.2,-128.8 88.7,-154.8 15.9,-10 32.8,-17.6 49.8,-24.2 7.2,-3.2 14.4,-5.8 21.6,-8.4 z"
         id="path864"
         style="fill:#d3bc5f" />
      <path
         d="m 720.7,660.3 c -3.5,-3.4 -7.3,-6.3 -11.5,-8.4 -7.8,-4.1 -16.6,-5.9 -25.2,-5.3 -0.9,13.2 3.6,26.6 13.7,36.6 3.5,3.5 7.3,6.3 11.4,8.4 6.8,3.6 14.2,5.4 21.7,5.4 1.2,0 2.3,0 3.5,-0.1 0.5,-7.3 -0.7,-14.6 -3.5,-21.4 -2.2,-5.5 -5.6,-10.7 -10.1,-15.2 z"
         id="path866"
         style="fill:#d3bc5f" />
      <path
         d="m 219.4,640.1 c -1.8,0.4 -3.6,0.9 -5.5,1.6 -9.2,3.3 -16.7,9.2 -22.1,16.5 -2.4,3.3 -4.4,7 -5.9,10.8 1.9,1.1 3.9,2 5.9,2.8 8.6,3.3 18.1,4.2 27.5,2.1 1.8,-0.4 3.7,-1 5.5,-1.6 13.3,-4.8 23.2,-15 28,-27.3 -9.8,-5.6 -21.7,-7.5 -33.4,-4.9 z"
         id="path868"
         style="fill:#d3bc5f" />
      <path
         d="m 835.1,619.3 c -14.1,-10.4 -31.5,-16.6 -50.3,-16.6 -8.6,0 -16.9,1.3 -24.7,3.6 -10.8,3.3 -20.7,8.7 -29.2,15.7 -3.6,3 -7,6.3 -10,9.8 3.1,3.5 6.4,6.8 10,9.7 8.5,7 18.4,12.4 29.2,15.6 7.8,2.4 16.1,3.6 24.7,3.6 18.8,0 36.2,-6.1 50.3,-16.5 4.7,-3.5 9.1,-7.4 12.9,-11.8 l 0.6,-0.7 -0.6,-0.7 c -3.9,-4.2 -8.2,-8.2 -12.9,-11.7 z"
         id="path870"
         style="fill:#d3bc5f" />
      <path
         d="m 910.3,636.4 c -12.8,-6.1 -27,-5.9 -39.1,-0.6 3.6,12.7 12.4,23.8 25.2,29.9 12,5.7 25.2,5.9 36.7,1.6 0.8,-0.3 1.6,-0.6 2.4,-0.9 -0.6,-2.2 -1.4,-4.4 -2.4,-6.5 -4.3,-10 -12.2,-18.4 -22.8,-23.5 z"
         id="path872"
         style="fill:#d3bc5f" />
      <path
         d="m 933.2,498.6 c -2.1,-0.7 -4.3,-1.2 -6.6,-1.6 -14,-2.2 -27.6,2 -37.7,10.4 7.1,11.2 18.6,19.3 32.7,21.6 3.9,0.6 7.8,0.7 11.6,0.4 9.7,-0.9 18.8,-4.8 26,-10.8 -5.8,-9.3 -14.9,-16.5 -26,-20 z"
         id="path874"
         style="fill:#d3bc5f" />
      <path
         d="m 953,444.8 c -7.3,0.7 -14,3.1 -19.8,6.6 -5.5,3.4 -10.3,7.8 -14,13 4.1,3.9 8.8,7 14,9.2 7.1,3 14.9,4.3 23,3.5 14.1,-1.4 26.2,-9 33.8,-19.7 -9.5,-9.1 -22.9,-14 -37,-12.6 z"
         id="path876"
         style="fill:#d3bc5f" />
      <path
         d="m 285.1,289.9 c 10.3,6.3 21.7,10.3 33.4,11.8 1.8,0.2 3.5,0.4 5.3,0.5 3.4,-16.9 1.8,-34.7 -5.3,-50.9 -2.7,-6.1 -6.1,-12 -10.3,-17.5 -6.5,-8.6 -14.4,-15.6 -23.1,-21 -11.8,-7.2 -25.1,-11.4 -38.7,-12.2 -4.8,23.1 0.1,48.1 15.6,68.3 6.5,8.7 14.4,15.7 23.1,21 z"
         id="path878"
         style="fill:#d3bc5f" />
      <path
         d="m 890.6,546.2 c -16.7,3.3 -31.2,11.2 -42.6,22.2 -4.9,4.8 -9.3,10.2 -12.9,16.1 -0.5,0.9 -1,1.7 -1.5,2.6 0.5,0.4 1,0.8 1.5,1.2 4.1,3 8.4,5.6 12.9,7.9 16.1,7.9 34.8,10.9 53.8,7.1 11.6,-2.3 22.2,-6.8 31.4,-13.1 10.6,-7.2 19.3,-16.7 25.6,-27.6 -7.6,-5.9 -16.3,-10.6 -25.6,-13.6 -13.3,-4.6 -27.9,-5.7 -42.6,-2.8 z"
         id="path880"
         style="fill:#d3bc5f" />
      <path
         d="m 165.2,640 c -15.1,-14 -35.3,-22.5 -57.5,-22.5 -10.7,0 -20.9,2 -30.4,5.6 -13,5 -24.5,13.1 -33.4,23.4 9,10.3 20.4,18.4 33.4,23.4 9.4,3.7 19.7,5.7 30.4,5.7 22.2,0 42.4,-8.6 57.5,-22.5 2.2,-2.1 4.4,-4.3 6.4,-6.6 -2,-2.2 -4.1,-4.4 -6.4,-6.5 z"
         id="path882"
         style="fill:#d3bc5f" />
      <path
         d="m 193.5,247 c 4.9,12.4 14.5,21.7 26,26.4 0.7,0.3 1.4,0.5 2.1,0.8 6.1,-11.6 7.3,-25.8 2.2,-39 -1.2,-3 -2.6,-5.9 -4.3,-8.5 -5.7,-8.9 -14.2,-15.4 -23.7,-18.8 -1.6,3.1 -2.9,6.4 -3.8,9.9 -2.1,7.8 -2.2,16.2 0,24.3 0.3,1.7 0.8,3.3 1.5,4.9 z"
         id="path884"
         style="fill:#d3bc5f" />
      <path
         d="m 146.5,380.8 c 6,4.1 12.3,7.3 18.8,9.7 8.7,3.2 17.7,4.9 26.7,5.2 8,0.2 15.9,-0.7 23.6,-2.6 -2.1,-18.4 -10.2,-36 -23.6,-49.7 -3.8,-3.8 -7.9,-7.3 -12.5,-10.5 -4.5,-3.1 -9.3,-5.7 -14.2,-7.9 -17.6,-7.7 -37,-9 -54.9,-4.4 2.6,23.5 15.1,45.8 36.1,60.2 z"
         id="path886"
         style="fill:#d3bc5f" />
      <path
         d="m 219.4,419.8 c -0.6,0.1 -1.1,0.3 -1.7,0.4 0.4,3.3 0.9,6.6 1.7,9.8 4.6,19.8 16.4,38 34.4,50.4 9.7,6.7 20.4,11.1 31.3,13.3 11.1,2.2 22.5,2.2 33.4,0 1.5,-0.3 3,-0.6 4.4,-1 -0.8,-6.5 -2.3,-12.8 -4.4,-18.9 -5.8,-16.2 -16.5,-30.8 -31.7,-41.3 -0.6,-0.4 -1.1,-0.8 -1.7,-1.1 -20.1,-13.2 -43.8,-16.7 -65.7,-11.6 z"
         id="path888"
         style="fill:#d3bc5f" />
      <path
         d="m 77.3,565 c 1,-1.3 1.9,-2.6 2.7,-4 -0.9,-0.7 -1.8,-1.4 -2.7,-2 -9.9,-6.9 -22.4,-9.9 -35.2,-7.6 -14,2.6 -25.4,11 -32.1,22.4 10.3,8.2 23.9,12 37.9,9.5 12.3,-2.3 22.5,-9.1 29.4,-18.3 z"
         id="path890"
         style="fill:#d3bc5f" />
      <path
         d="m 268.1,378.9 c 5.3,4.6 11,8.4 17,11.5 10.5,5.4 21.9,8.4 33.4,9 5.6,0.3 11.3,0.1 16.8,-0.7 -0.1,-17.8 -5.8,-35.6 -16.8,-50.4 -3.6,-4.8 -7.7,-9.3 -12.4,-13.3 -6.5,-5.6 -13.6,-10.1 -21,-13.4 -14.7,-6.5 -30.8,-8.7 -46.4,-6.5 0.2,23.5 10.1,47 29.4,63.8 z"
         id="path892"
         style="fill:#d3bc5f" />
      <path
         d="m 60.5,514.5 c 5.9,0.5 11.5,-0.1 16.8,-1.6 7.6,-2.2 14.4,-6.2 19.9,-11.6 -5,-6.8 -11.9,-12.3 -19.9,-15.7 -4.4,-1.8 -9.2,-3 -14.3,-3.4 -14,-1.2 -27.3,4.1 -36.8,13.3 7.9,10.5 20.2,17.8 34.3,19 z"
         id="path894"
         style="fill:#d3bc5f" />
      <path
         d="m 176.8,508.9 c -3.9,-0.9 -7.7,-1.6 -11.5,-2 -20.8,-2.2 -41,3.5 -57.3,14.9 10.8,21 30.2,37.4 54.9,43.6 0.8,0.2 1.6,0.4 2.4,0.6 9,1.9 18,2.4 26.7,1.5 9.7,-1 19,-3.6 27.5,-7.7 4.3,-2.1 8.4,-4.5 12.3,-7.2 -3.3,-6.5 -7.5,-12.5 -12.3,-17.9 -7.6,-8.4 -16.9,-15.4 -27.5,-20.4 -4.9,-2.2 -9.9,-4 -15.2,-5.4 z"
         id="path896"
         style="fill:#d3bc5f" />
      <path
         d="m 98.2,464.6 c 20.4,14 44.7,17.9 67,12.8 0.7,-0.2 1.3,-0.3 2,-0.5 -0.4,-3.7 -1.1,-7.4 -2,-11 -4.8,-19.3 -16.4,-37.1 -34.1,-49.2 -16.4,-11.3 -35.4,-16 -53.8,-14.8 -5.2,0.3 -10.3,1.2 -15.3,2.4 1.6,14.2 6.8,27.9 15.3,39.7 5.6,7.9 12.6,14.8 20.9,20.6 z"
         id="path898"
         style="fill:#d3bc5f" />
    </g>
  </g>
</svg>
