<?xml version="1.0" encoding="UTF-8"?><svg xmlns="http://www.w3.org/2000/svg" xmlns:xlink="http://www.w3.org/1999/xlink" contentScriptType="text/ecmascript" width="375" zoomAndPan="magnify" contentStyleType="text/css" viewBox="0 0 375 374.999991" height="374.999991" preserveAspectRatio="xMidYMid meet" version="1.0"><defs><clipPath id="clip-0"><path d="M 50 276 L 98 276 L 98 334 L 50 334 Z M 50 276 " clip-rule="nonzero"/></clipPath><clipPath id="clip-1"><path d="M 63.878906 276.496094 L 102.277344 286.765625 L 88.910156 336.757812 L 50.507812 326.492188 Z M 63.878906 276.496094 " clip-rule="nonzero"/></clipPath><clipPath id="clip-2"><path d="M 63.878906 276.496094 L 102.277344 286.765625 L 88.910156 336.757812 L 50.507812 326.492188 Z M 63.878906 276.496094 " clip-rule="nonzero"/></clipPath><clipPath id="clip-3"><path d="M 117.871094 278.277344 L 171.121094 278.277344 L 171.121094 343 L 117.871094 343 Z M 117.871094 278.277344 " clip-rule="nonzero"/></clipPath><clipPath id="clip-4"><path d="M 192 274 L 258 274 L 258 339 L 192 339 Z M 192 274 " clip-rule="nonzero"/></clipPath><clipPath id="clip-5"><path d="M 192.117188 287.394531 L 246.125 274.605469 L 258.222656 325.691406 L 204.21875 338.484375 Z M 192.117188 287.394531 " clip-rule="nonzero"/></clipPath><clipPath id="clip-6"><path d="M 192.117188 287.394531 L 246.125 274.605469 L 258.222656 325.691406 L 204.21875 338.484375 Z M 192.117188 287.394531 " clip-rule="nonzero"/></clipPath><clipPath id="clip-7"><path d="M 276 278 L 325 278 L 325 336 L 276 336 Z M 276 278 " clip-rule="nonzero"/></clipPath><clipPath id="clip-8"><path d="M 281.367188 278.277344 L 324.664062 282.488281 L 319.511719 335.488281 L 276.214844 331.277344 Z M 281.367188 278.277344 " clip-rule="nonzero"/></clipPath><clipPath id="clip-9"><path d="M 281.367188 278.277344 L 324.664062 282.488281 L 319.511719 335.488281 L 276.214844 331.277344 Z M 281.367188 278.277344 " clip-rule="nonzero"/></clipPath><clipPath id="clip-10"><path d="M 124 49 L 260 49 L 260 237.398438 L 124 237.398438 Z M 124 49 " clip-rule="nonzero"/></clipPath><clipPath id="clip-11"><path d="M 182 29.648438 L 203 29.648438 L 203 49 L 182 49 Z M 182 29.648438 " clip-rule="nonzero"/></clipPath><clipPath id="clip-12"><path d="M 259 106 L 279.851562 106 L 279.851562 126 L 259 126 Z M 259 106 " clip-rule="nonzero"/></clipPath><clipPath id="clip-13"><path d="M 104.351562 103 L 125 103 L 125 115 L 104.351562 115 Z M 104.351562 103 " clip-rule="nonzero"/></clipPath></defs><rect x="-37.5" width="450" fill="rgb(100%, 100%, 100%)" y="-37.499999" height="449.999989" fill-opacity="1"/><rect x="-37.5" width="450" fill="rgb(100%, 100%, 100%)" y="-37.499999" height="449.999989" fill-opacity="1"/><rect x="-37.5" width="450" fill="rgb(100%, 100%, 100%)" y="-37.499999" height="449.999989" fill-opacity="1"/><g clip-path="url(#clip-0)"><g clip-path="url(#clip-1)"><g clip-path="url(#clip-2)"><path fill="rgb(0%, 50.19989%, 21.569824%)" d="M 87.679688 307.917969 C 91.785156 306.917969 95.320312 303.546875 96.484375 299.195312 C 98.636719 291.152344 94.074219 284.582031 84.585938 282.042969 L 65.003906 276.808594 C 64.382812 276.640625 63.738281 277.015625 63.570312 277.640625 L 50.8125 325.347656 C 50.648438 325.972656 51.015625 326.617188 51.640625 326.785156 L 71.675781 332.140625 C 82.304688 334.984375 90.417969 331.121094 92.839844 322.058594 C 94.355469 316.398438 92.304688 311.023438 87.679688 307.917969 Z M 71.914062 287.175781 L 79.816406 289.285156 C 84.8125 290.621094 87.054688 293.910156 85.902344 298.21875 C 84.726562 302.625 80.972656 304.203125 75.113281 302.632812 L 68.269531 300.804688 Z M 71.417969 323.554688 L 62.800781 321.25 L 66.445312 307.621094 L 74.738281 309.835938 C 81.136719 311.546875 83.894531 314.78125 82.714844 319.191406 C 81.511719 323.691406 77.589844 325.203125 71.417969 323.554688 Z M 71.417969 323.554688 " fill-opacity="1" fill-rule="nonzero"/></g></g></g><g clip-path="url(#clip-3)"><path fill="rgb(49.409485%, 85.099792%, 34.118652%)" d="M 154.785156 313.59375 C 154.789062 322.089844 154.65625 324.636719 151.71875 326.902344 C 148.910156 329.066406 141.335938 329.390625 137.722656 326.75 C 134.273438 324.234375 134.136719 320.671875 134.199219 314.589844 L 134.210938 278.277344 L 117.910156 278.277344 L 117.910156 312.027344 C 117.910156 323.773438 117.910156 334.867188 131.03125 340.480469 C 137.058594 343.0625 150.585938 343.527344 157.847656 340.664062 C 171.085938 335.445312 171.085938 324.390625 171.085938 311.539062 L 171.085938 278.277344 L 154.785156 278.277344 Z M 154.785156 313.59375 " fill-opacity="1" fill-rule="nonzero"/></g><g clip-path="url(#clip-4)"><g clip-path="url(#clip-5)"><g clip-path="url(#clip-6)"><path fill="rgb(80.389404%, 92.158508%, 34.509277%)" d="M 244.945312 274.886719 L 234.378906 277.386719 C 233.910156 277.5 233.496094 277.839844 233.488281 278.332031 L 227.34375 315.714844 L 205.082031 285.0625 C 204.855469 284.625 204.332031 284.503906 203.863281 284.613281 L 193.296875 287.117188 C 192.59375 287.285156 192.234375 287.859375 192.398438 288.554688 L 203.949219 337.320312 C 204.113281 338.015625 204.695312 338.371094 205.398438 338.203125 L 213.613281 336.257812 C 214.320312 336.089844 214.679688 335.515625 214.511719 334.820312 L 207.089844 303.46875 L 207.910156 303.273438 L 226.472656 328.796875 C 226.820312 329.207031 227.226562 329.355469 227.695312 329.242188 L 233.210938 327.9375 C 233.683594 327.824219 234.097656 327.484375 234.105469 326.992188 L 239.132812 295.878906 L 239.953125 295.6875 L 247.378906 327.035156 C 247.542969 327.730469 248.121094 328.085938 248.828125 327.917969 L 257.042969 325.972656 C 257.746094 325.804688 258.105469 325.230469 257.941406 324.53125 L 246.390625 275.769531 C 246.226562 275.070312 245.648438 274.71875 244.945312 274.886719 Z M 244.945312 274.886719 " fill-opacity="1" fill-rule="nonzero"/></g></g></g><g clip-path="url(#clip-7)"><g clip-path="url(#clip-8)"><g clip-path="url(#clip-9)"><path fill="rgb(58.039856%, 89.408875%, 29.798889%)" d="M 323.449219 282.367188 L 315.035156 281.550781 C 314.371094 281.484375 313.78125 281.972656 313.714844 282.636719 L 310.554688 315.160156 L 310.351562 315.140625 L 291.226562 279.746094 C 291.03125 279.40625 290.621094 279.175781 290.230469 279.136719 L 282.585938 278.394531 C 281.921875 278.328125 281.332031 278.816406 281.265625 279.480469 L 276.347656 330.074219 C 276.28125 330.738281 276.765625 331.328125 277.429688 331.394531 L 285.84375 332.210938 C 286.507812 332.277344 287.097656 331.789062 287.164062 331.125 L 290.324219 298.601562 L 290.527344 298.621094 L 309.652344 334.015625 C 309.847656 334.355469 310.292969 334.589844 310.679688 334.628906 L 318.292969 335.367188 C 318.957031 335.433594 319.546875 334.945312 319.613281 334.28125 L 324.53125 283.691406 C 324.597656 283.023438 324.113281 282.433594 323.449219 282.367188 Z M 323.449219 282.367188 " fill-opacity="1" fill-rule="nonzero"/></g></g></g><g clip-path="url(#clip-10)"><path fill="rgb(40.388489%, 22.749329%, 8.239746%)" d="M 229.925781 133.503906 L 228.835938 113.445312 L 225.765625 134.5 C 211.246094 137.988281 196.132812 141.636719 189.796875 143.164062 C 188.71875 129.238281 187.636719 115.359375 186.648438 102.722656 L 215.726562 73.375 L 186.1875 96.863281 C 184.078125 69.90625 182.5 49.941406 182.5 49.941406 C 182.5 49.941406 182.058594 55.058594 181.328125 63.589844 L 167.289062 50.644531 L 180.925781 68.332031 C 180.015625 78.984375 178.785156 93.429688 177.441406 109.382812 L 161.378906 95.953125 L 160.738281 82.28125 L 159.152344 94.089844 L 150.914062 87.203125 L 176.863281 116.296875 C 176.488281 120.726562 176.109375 125.238281 175.730469 129.792969 L 140.945312 119.019531 L 138.742188 102.902344 L 138.300781 118.199219 L 124.46875 113.917969 L 146.316406 123.734375 L 143.890625 142.273438 L 149.953125 125.367188 L 175.15625 136.691406 C 171.71875 177.976562 168.257812 220.78125 167.730469 232.007812 C 167.394531 239.199219 196.980469 239.191406 196.492188 232.007812 C 195.550781 218.09375 193.121094 186.121094 190.542969 152.785156 C 194.613281 151.234375 200.820312 148.867188 207.878906 146.175781 L 221.34375 156.800781 L 210.976562 144.992188 C 232.007812 136.972656 258.546875 126.851562 259.253906 126.570312 C 259.769531 126.363281 245.761719 129.703125 229.925781 133.503906 Z M 229.925781 133.503906 " fill-opacity="1" fill-rule="nonzero"/></g><g clip-path="url(#clip-11)"><path fill="rgb(27.059937%, 48.239136%, 18.429565%)" d="M 182.757812 48.820312 C 182.757812 48.820312 182.757812 30.363281 202.617188 29.648438 C 202.617188 29.648438 204.761719 46.308594 182.757812 48.820312 Z M 182.757812 48.820312 " fill-opacity="1" fill-rule="nonzero"/></g><g clip-path="url(#clip-12)"><path fill="rgb(27.059937%, 48.239136%, 18.429565%)" d="M 259.882812 125.796875 C 259.882812 125.796875 259.882812 107.347656 279.742188 106.632812 C 279.742188 106.632812 281.886719 123.292969 259.882812 125.796875 Z M 259.882812 125.796875 " fill-opacity="1" fill-rule="nonzero"/></g><path fill="rgb(27.059937%, 48.239136%, 18.429565%)" d="M 216.109375 71.980469 C 216.109375 71.980469 216.109375 56.253906 202.925781 55.640625 C 202.925781 55.640625 201.5 69.839844 216.109375 71.980469 Z M 216.109375 71.980469 " fill-opacity="1" fill-rule="nonzero"/><path fill="rgb(27.059937%, 48.239136%, 18.429565%)" d="M 166.679688 50.273438 C 166.679688 50.273438 158.636719 36.765625 147.003906 43.003906 C 147.003906 43.003906 153.039062 55.929688 166.679688 50.273438 Z M 166.679688 50.273438 " fill-opacity="1" fill-rule="nonzero"/><path fill="rgb(27.059937%, 48.239136%, 18.429565%)" d="M 227.925781 113.375 C 227.925781 113.375 219.882812 99.867188 208.246094 106.105469 C 208.246094 106.105469 214.285156 119.027344 227.925781 113.375 Z M 227.925781 113.375 " fill-opacity="1" fill-rule="nonzero"/><path fill="rgb(27.059937%, 48.239136%, 18.429565%)" d="M 247.609375 127.792969 C 247.609375 127.792969 252.238281 116.25 242.222656 111.703125 C 242.222656 111.703125 236.945312 121.679688 247.609375 127.792969 Z M 247.609375 127.792969 " fill-opacity="1" fill-rule="nonzero"/><path fill="rgb(27.059937%, 48.239136%, 18.429565%)" d="M 143.453125 139.546875 C 143.453125 139.546875 135.398438 133.269531 129.542969 140.164062 C 129.542969 140.164062 136.21875 146.601562 143.453125 139.546875 Z M 143.453125 139.546875 " fill-opacity="1" fill-rule="nonzero"/><path fill="rgb(27.059937%, 48.239136%, 18.429565%)" d="M 145.085938 144.273438 C 145.085938 144.273438 143.433594 156.152344 153.867188 158.078125 C 153.867188 158.078125 156.492188 147.511719 145.085938 144.273438 Z M 145.085938 144.273438 " fill-opacity="1" fill-rule="nonzero"/><path fill="rgb(27.059937%, 48.239136%, 18.429565%)" d="M 254.078125 130.007812 C 254.078125 130.007812 249.496094 141.089844 259.113281 145.578125 C 259.113281 145.578125 264.308594 136.015625 254.078125 130.007812 Z M 254.078125 130.007812 " fill-opacity="1" fill-rule="nonzero"/><path fill="rgb(27.059937%, 48.239136%, 18.429565%)" d="M 149.953125 87.289062 C 149.953125 87.289062 144.160156 76.289062 134.214844 81.003906 C 134.214844 81.003906 138.398438 91.484375 149.953125 87.289062 Z M 149.953125 87.289062 " fill-opacity="1" fill-rule="nonzero"/><path fill="rgb(27.059937%, 48.239136%, 18.429565%)" d="M 225.65625 126.683594 C 225.65625 126.683594 216.554688 123.269531 213.179688 131.203125 C 213.179688 131.203125 221.070312 135.160156 225.65625 126.683594 Z M 225.65625 126.683594 " fill-opacity="1" fill-rule="nonzero"/><path fill="rgb(27.059937%, 48.239136%, 18.429565%)" d="M 184.601562 57.371094 C 184.601562 57.371094 189.996094 43.003906 205.789062 48.308594 C 205.789062 48.308594 202.609375 61.917969 184.601562 57.371094 Z M 184.601562 57.371094 " fill-opacity="1" fill-rule="nonzero"/><path fill="rgb(27.059937%, 48.239136%, 18.429565%)" d="M 253.410156 126.8125 C 253.410156 126.8125 245.511719 115.980469 256.953125 106.972656 C 256.953125 106.972656 265.351562 115.824219 253.410156 126.8125 Z M 253.410156 126.8125 " fill-opacity="1" fill-rule="nonzero"/><path fill="rgb(27.059937%, 48.239136%, 18.429565%)" d="M 258.679688 128.738281 C 258.679688 128.738281 271.421875 124.605469 276.402344 138.296875 C 276.402344 138.296875 265.382812 143.53125 258.679688 128.738281 Z M 258.679688 128.738281 " fill-opacity="1" fill-rule="nonzero"/><path fill="rgb(27.059937%, 48.239136%, 18.429565%)" d="M 216.984375 72.433594 C 216.984375 72.433594 221.953125 59.199219 236.5 64.085938 C 236.5 64.085938 233.566406 76.617188 216.984375 72.433594 Z M 216.984375 72.433594 " fill-opacity="1" fill-rule="nonzero"/><path fill="rgb(27.059937%, 48.239136%, 18.429565%)" d="M 181.425781 48.894531 C 181.425781 48.894531 182.054688 37.117188 169.140625 35.964844 C 169.140625 35.964844 167.171875 46.527344 181.425781 48.894531 Z M 181.425781 48.894531 " fill-opacity="1" fill-rule="nonzero"/><path fill="rgb(27.059937%, 48.239136%, 18.429565%)" d="M 197.011719 86.949219 C 197.011719 86.949219 189.085938 78.527344 197.910156 69.589844 C 197.910156 69.589844 206.054688 76.257812 197.011719 86.949219 Z M 197.011719 86.949219 " fill-opacity="1" fill-rule="nonzero"/><path fill="rgb(27.059937%, 48.239136%, 18.429565%)" d="M 229.542969 112.148438 C 229.542969 112.148438 227.261719 100.808594 239.464844 97.878906 C 239.464844 97.878906 242.863281 107.851562 229.542969 112.148438 Z M 229.542969 112.148438 " fill-opacity="1" fill-rule="nonzero"/><path fill="rgb(27.059937%, 48.239136%, 18.429565%)" d="M 222.222656 156.671875 C 222.222656 156.671875 232.800781 152.035156 238.242188 163.363281 C 238.242188 163.363281 229.238281 168.796875 222.222656 156.671875 Z M 222.222656 156.671875 " fill-opacity="1" fill-rule="nonzero"/><path fill="rgb(27.059937%, 48.239136%, 18.429565%)" d="M 166.734375 52.328125 C 166.734375 52.328125 166.699219 61.921875 156.296875 62.257812 C 156.296875 62.257812 155.203125 53.59375 166.734375 52.328125 Z M 166.734375 52.328125 " fill-opacity="1" fill-rule="nonzero"/><path fill="rgb(27.059937%, 48.239136%, 18.429565%)" d="M 160.089844 81.53125 C 160.089844 81.53125 145.175781 81.28125 144.863281 65.054688 C 144.863281 65.054688 158.359375 63.519531 160.089844 81.53125 Z M 160.089844 81.53125 " fill-opacity="1" fill-rule="nonzero"/><g clip-path="url(#clip-13)"><path fill="rgb(27.059937%, 48.239136%, 18.429565%)" d="M 124.082031 112.613281 C 124.082031 112.613281 116.042969 99.105469 104.40625 105.34375 C 104.40625 105.34375 110.441406 118.273438 124.082031 112.613281 Z M 124.082031 112.613281 " fill-opacity="1" fill-rule="nonzero"/></g><path fill="rgb(27.059937%, 48.239136%, 18.429565%)" d="M 138.246094 101.539062 C 138.246094 101.539062 137.722656 85.820312 124.527344 85.648438 C 124.527344 85.648438 123.574219 99.886719 138.246094 101.539062 Z M 138.246094 101.539062 " fill-opacity="1" fill-rule="nonzero"/><path fill="rgb(27.059937%, 48.239136%, 18.429565%)" d="M 140.539062 102.484375 C 140.539062 102.484375 149.804688 107.054688 153.992188 99.445312 C 153.992188 99.445312 146.042969 94.472656 140.539062 102.484375 Z M 140.539062 102.484375 " fill-opacity="1" fill-rule="nonzero"/><path fill="rgb(27.059937%, 48.239136%, 18.429565%)" d="M 230.011719 123.179688 C 230.011719 123.179688 235.214844 125.75 237.566406 121.472656 C 237.566406 121.472656 233.101562 118.6875 230.011719 123.179688 Z M 230.011719 123.179688 " fill-opacity="1" fill-rule="nonzero"/><path fill="rgb(27.059937%, 48.239136%, 18.429565%)" d="M 220.6875 152.964844 C 220.6875 152.964844 229.949219 157.535156 234.144531 149.921875 C 234.144531 149.921875 226.191406 144.957031 220.6875 152.964844 Z M 220.6875 152.964844 " fill-opacity="1" fill-rule="nonzero"/><path fill="rgb(27.059937%, 48.239136%, 18.429565%)" d="M 219.375 171.824219 C 219.375 171.824219 212.574219 164.25 218.757812 158.152344 C 218.757812 158.152344 225.589844 164.363281 219.375 171.824219 Z M 219.375 171.824219 " fill-opacity="1" fill-rule="nonzero"/><path fill="rgb(27.059937%, 48.239136%, 18.429565%)" d="M 162.144531 82.179688 C 162.144531 82.179688 172.472656 82 172.722656 73.308594 C 172.722656 73.308594 163.382812 72.535156 162.144531 82.179688 Z M 162.144531 82.179688 " fill-opacity="1" fill-rule="nonzero"/><path fill="rgb(27.059937%, 48.239136%, 18.429565%)" d="M 124.140625 114.675781 C 124.140625 114.675781 124.101562 124.265625 113.703125 124.601562 C 113.703125 124.601562 112.609375 115.9375 124.140625 114.675781 Z M 124.140625 114.675781 " fill-opacity="1" fill-rule="nonzero"/><path fill="rgb(27.059937%, 48.239136%, 18.429565%)" d="M 225.664062 120.042969 C 225.664062 120.042969 218.960938 129.023438 208.964844 122.078125 C 208.964844 122.078125 213.957031 113.1875 225.664062 120.042969 Z M 225.664062 120.042969 " fill-opacity="1" fill-rule="nonzero"/><path fill="rgb(27.059937%, 48.239136%, 18.429565%)" d="M 143.550781 143.699219 C 143.550781 143.699219 143.503906 155.964844 130.199219 156.394531 C 130.199219 156.394531 128.796875 145.308594 143.550781 143.699219 Z M 143.550781 143.699219 " fill-opacity="1" fill-rule="nonzero"/><path fill="rgb(27.059937%, 48.239136%, 18.429565%)" d="M 130.496094 113.136719 C 130.496094 113.136719 120.949219 112.347656 121.429688 101.9375 C 121.429688 101.9375 130.144531 101.523438 130.496094 113.136719 Z M 130.496094 113.136719 " fill-opacity="1" fill-rule="nonzero"/><path fill="rgb(27.059937%, 48.239136%, 18.429565%)" d="M 143.347656 137.367188 C 143.347656 137.367188 133.800781 136.578125 134.28125 126.167969 C 134.28125 126.167969 142.996094 125.753906 143.347656 137.367188 Z M 143.347656 137.367188 " fill-opacity="1" fill-rule="nonzero"/></svg>